<?xml version="1.0" encoding="UTF-8" standalone="no"?>
<svg
   width="100px"
   height="100px"
   viewBox="0 0 100 100"
   version="1.1"
   id="svg18"
   sodipodi:docname="icon.svg"
   inkscape:version="1.2.2 (b0a8486541, 2022-12-01)"
   xml:space="preserve"
   xmlns:inkscape="http://www.inkscape.org/namespaces/inkscape"
   xmlns:sodipodi="http://sodipodi.sourceforge.net/DTD/sodipodi-0.dtd"
   xmlns:xlink="http://www.w3.org/1999/xlink"
   xmlns="http://www.w3.org/2000/svg"
   xmlns:svg="http://www.w3.org/2000/svg"
   xmlns:rdf="http://www.w3.org/1999/02/22-rdf-syntax-ns#"
   xmlns:cc="http://creativecommons.org/ns#"
   xmlns:dc="http://purl.org/dc/elements/1.1/"><metadata
     id="metadata22"><rdf:RDF><cc:Work
         rdf:about=""><dc:format>image/svg+xml</dc:format><dc:type
           rdf:resource="http://purl.org/dc/dcmitype/StillImage" /><dc:title>eclispe-che</dc:title></cc:Work></rdf:RDF></metadata><sodipodi:namedview
     pagecolor="#ffffff"
     bordercolor="#666666"
     borderopacity="1"
     objecttolerance="10"
     gridtolerance="10"
     guidetolerance="10"
     inkscape:pageopacity="0"
     inkscape:pageshadow="2"
     inkscape:window-width="1807"
     inkscape:window-height="925"
     id="namedview20"
     showgrid="false"
     inkscape:pagecheckerboard="true"
     inkscape:zoom="4.72"
     inkscape:cx="20.021186"
     inkscape:cy="48.516949"
     inkscape:window-x="574"
     inkscape:window-y="258"
     inkscape:window-maximized="0"
     inkscape:current-layer="layer2"
     inkscape:showpageshadow="2"
     inkscape:deskcolor="#d1d1d1" /><!-- Generator: Sketch 45.2 (43514) - http://www.bohemiancoding.com/sketch --><title
     id="title2">eclispe-che</title><desc
     id="desc4">Created with Sketch.</desc><defs
     id="defs7"><path
       d="M50.0004412,4.04252804e-14 C22.3871247,4.04252804e-14 0,22.3848726 0,49.9995588 C0,77.6133626 22.3871247,100 50.0004412,100 C77.6137577,100 100,77.6133626 100,49.9995588 C100,22.3848726 77.6128753,3.55271368e-14 50.0004412,4.04252804e-14 Z"
       id="path-1" /></defs><g
     inkscape:groupmode="layer"
     id="layer1"
     inkscape:label="BACKGROUND"><g
       style="fill:#ffffff;fill-opacity:1;fill-rule:evenodd;stroke:none;stroke-width:1;stroke-opacity:1"
       id="Page-1"><g
         id="eclispe-che"
         style="fill:#ffffff;fill-opacity:1;stroke:none;stroke-opacity:1"><g
           id="path3023-path"
           style="fill:#ffffff;fill-opacity:1;stroke:none;stroke-opacity:1"><use
             xlink:href="#path-1"
             id="use9"
             style="fill:#ffffff;fill-opacity:1;fill-rule:evenodd;stroke:none;stroke-opacity:1"
             x="0"
             y="0"
             width="100%"
             height="100%" /><path
             d="M 50.000441,0.5 C 22.662621,0.5 0.5,22.661661 0.5,49.999559 0.5,77.337051 22.663098,99.5 50.000441,99.5 77.337613,99.5 99.5,77.337222 99.5,49.999559 99.5,22.661796 77.337514,0.5 50.000441,0.5 Z"
             id="path11"
             style="fill:#ffffff;fill-opacity:1;stroke:none;stroke-width:1;stroke-opacity:1"
             inkscape:connector-curvature="0" /></g></g></g></g><g
     inkscape:groupmode="layer"
     id="layer2"
     inkscape:label="PLACE LOGO HERE"><g
       id="g458"
       transform="matrix(0.38961039,0,0,0.3990878,-10.662338,-6.3340935)"><g
         id="g412">
	<g
   id="g410">
		<path
   class="st1"
   d="m 211.5,83.4 c 0,-0.7 0.1,-1.4 0.1,-2 0,-0.7 0,-1.4 -0.1,-2 z"
   id="path386" />
		<path
   class="st2"
   d="m 196.3,115.5 c -3.3,0 -4.9,1.2 -6.7,2.7 -2,1.6 -4.2,3.4 -8.6,3.4 -4.3,0 -6.6,-1.8 -8.6,-3.4 -1.8,-1.4 -3.4,-2.7 -6.7,-2.7 -3.3,0 -4.9,1.2 -6.7,2.7 -2,1.6 -4.2,3.4 -8.6,3.4 -4.3,0 -6.6,-1.8 -8.6,-3.4 -1.8,-1.4 -3.4,-2.7 -6.7,-2.7 -3.3,0 -4.9,1.2 -6.7,2.7 -1.3,1 -2.7,2.2 -4.8,2.8 8.3,7.3 18.9,12 30.5,13 0.3,0 0.6,0.1 1,0.1 1.1,0.1 2.3,0.1 3.4,0.1 1.2,0 2.3,-0.1 3.4,-0.1 0.3,0 0.6,0 1,-0.1 14.2,-1.2 26.8,-8 35.6,-18.2 -0.5,-0.1 -1.3,-0.3 -2.2,-0.3 z"
   id="path388" />
		<path
   class="st2"
   d="m 120.1,76.1 c 3.6,0 5.3,-1.4 7.2,-2.9 2,-1.6 4,-3.2 8,-3.2 4,0 6.1,1.6 8,3.2 1.9,1.5 3.6,2.9 7.2,2.9 3.6,0 5.3,-1.4 7.2,-2.9 2,-1.6 4,-3.2 8,-3.2 4,0 6.1,1.6 8,3.2 1.9,1.5 3.6,2.9 7.2,2.9 3.6,0 5.3,-1.4 7.2,-2.9 2,-1.6 4,-3.2 8,-3.2 4,0 6.1,1.6 8,3.2 1.8,1.5 3.6,2.8 7,2.9 -0.5,-4.8 -1.6,-9.5 -3.3,-13.8 -1.8,-0.6 -3.1,-1.6 -4.4,-2.6 -1.9,-1.5 -3.7,-2.9 -7.4,-2.9 -3.7,0 -5.5,1.4 -7.4,2.9 -1.9,1.5 -3.9,3.1 -7.9,3.1 -4,0 -5.9,-1.6 -7.9,-3.1 -1.9,-1.5 -3.7,-2.9 -7.4,-2.9 -3.7,0 -5.5,1.4 -7.4,2.9 -1.9,1.5 -3.9,3.1 -7.9,3.1 -4,0 -5.9,-1.6 -7.9,-3.1 -1.9,-1.5 -3.7,-2.9 -7.4,-2.9 -3.7,0 -5.5,1.4 -7.4,2.9 -1.9,1.5 -3.9,3.1 -7.9,3.1 -4,0 -5.9,-1.6 -7.9,-3.1 -0.4,-0.3 -0.9,-0.7 -1.3,-1 -1.7,3.6 -3.1,7.5 -3.9,11.6 2.7,0.5 4.3,1.7 5.9,3 2.5,1.4 4.2,2.8 7.8,2.8 z"
   id="path390" />
		<path
   class="st2"
   d="m 120.1,61.9 c 3.7,0 5.5,-1.4 7.4,-2.9 1.9,-1.5 3.9,-3.1 7.9,-3.1 4,0 5.9,1.6 7.9,3.1 1.9,1.5 3.7,2.9 7.4,2.9 3.7,0 5.5,-1.4 7.4,-2.9 1.9,-1.5 3.9,-3.1 7.9,-3.1 4,0 5.9,1.6 7.9,3.1 1.9,1.5 3.7,2.9 7.4,2.9 3.7,0 5.5,-1.4 7.4,-2.9 1.9,-1.5 3.9,-3.1 7.9,-3.1 4,0 5.9,1.6 7.9,3.1 1.1,0.8 2.1,1.7 3.4,2.2 C 200,42 181,28.4 159,28.4 c -20.8,0 -38.7,12 -47.4,29.5 0.5,0.4 1,0.7 1.4,1.1 1.6,1.5 3.4,2.9 7.1,2.9 z"
   id="path392" />
		<path
   class="st2"
   d="m 196.3,100.8 c -3.4,0 -5,1.3 -6.8,2.8 -1.9,1.5 -4.1,3.3 -8.4,3.3 -4.2,0 -6.4,-1.7 -8.4,-3.3 -1.9,-1.5 -3.5,-2.8 -6.8,-2.8 -3.4,0 -5,1.3 -6.8,2.8 -1.9,1.5 -4.1,3.3 -8.4,3.3 -4.2,0 -6.4,-1.7 -8.4,-3.3 -1.9,-1.5 -3.5,-2.8 -6.8,-2.8 -3.4,0 -5,1.3 -6.8,2.8 -1.9,1.5 -4.1,3.3 -8.4,3.3 -4.2,0 -6.4,-1.7 -8.4,-3.3 -0.5,-0.4 -1,-0.8 -1.5,-1.1 2.6,6 6.3,11.4 10.9,16 2.6,-0.2 4,-1.4 5.6,-2.6 2,-1.6 4.2,-3.4 8.6,-3.4 4.3,0 6.6,1.8 8.6,3.4 1.8,1.4 3.4,2.7 6.7,2.7 3.3,0 4.9,-1.2 6.7,-2.7 2,-1.6 4.2,-3.4 8.6,-3.4 4.3,0 6.6,1.8 8.6,3.4 1.8,1.4 3.4,2.7 6.7,2.7 3.3,0 4.9,-1.2 6.7,-2.7 2,-1.6 4.2,-3.4 8.6,-3.4 1.8,0 3.3,0.3 4.5,0.8 1.9,-2.5 3.5,-5.1 5,-7.9 -1,-0.6 -1.8,-1.2 -2.6,-1.8 -2.3,-1.5 -4,-2.8 -7.3,-2.8 z"
   id="path394" />
		<path
   class="st2"
   d="m 211.4,77.5 c -4,0 -6,-1.6 -8,-3.2 -1.9,-1.5 -3.6,-2.9 -7.2,-2.9 -3.6,0 -5.3,1.4 -7.2,2.9 -2,1.6 -4,3.2 -8,3.2 -4,0 -6.1,-1.6 -8,-3.2 -1.9,-1.5 -3.6,-2.9 -7.2,-2.9 -3.6,0 -5.3,1.4 -7.2,2.9 -2,1.6 -4,3.2 -8,3.2 -4,0 -6.1,-1.6 -8,-3.2 -1.9,-1.5 -3.6,-2.9 -7.2,-2.9 -3.6,0 -5.3,1.4 -7.2,2.9 -2,1.6 -4,3.2 -8,3.2 -4,0 -6.1,-1.6 -8,-3.2 -1.5,-1.2 -3,-2.3 -5.3,-2.7 -0.5,2.5 -0.8,5.1 -0.9,7.7 0,0.7 -0.1,1.4 -0.1,2 0,0.7 0,1.4 0.1,2 0,0.3 0,0.6 0,0.9 3.5,0.3 5.4,1.8 7.2,3.2 1.8,1.4 3.5,2.8 7,2.8 3.5,0 5.2,-1.4 7,-2.8 1.9,-1.5 4.1,-3.2 8.2,-3.2 4.1,0 6.3,1.7 8.2,3.2 1.8,1.4 3.5,2.8 7,2.8 3.5,0 5.2,-1.4 7,-2.8 1.9,-1.5 4.1,-3.2 8.2,-3.2 4.1,0 6.3,1.7 8.2,3.2 1.8,1.4 3.5,2.8 7,2.8 3.5,0 5.2,-1.4 7,-2.8 1.9,-1.5 4.1,-3.2 8.2,-3.2 4.1,0 6.3,1.7 8.2,3.2 1.7,1.3 3.3,2.6 6.3,2.8 0.3,-1.6 0.5,-3.2 0.6,-4.9 0,-0.6 0.1,-1.3 0.1,-1.9 v -4.1 c 0.1,-0.7 0,-1.8 0,-1.8 z"
   id="path396" />
		<path
   class="st2"
   d="m 196.3,86.1 c -3.5,0 -5.2,1.4 -7,2.8 -1.9,1.5 -4.1,3.2 -8.2,3.2 -4.1,0 -6.3,-1.7 -8.2,-3.2 -1.8,-1.4 -3.5,-2.8 -7,-2.8 -3.5,0 -5.2,1.4 -7,2.8 -1.9,1.5 -4.1,3.2 -8.2,3.2 -4.1,0 -6.3,-1.7 -8.2,-3.2 -1.8,-1.4 -3.5,-2.8 -7,-2.8 -3.5,0 -5.2,1.4 -7,2.8 -1.9,1.5 -4.1,3.2 -8.2,3.2 -4.1,0 -6.3,-1.7 -8.2,-3.2 -1.6,-1.3 -3.1,-2.5 -5.8,-2.8 0.4,4.5 1.4,8.7 2.8,12.8 1.9,0.6 3.2,1.7 4.4,2.7 1.9,1.5 3.5,2.8 6.8,2.8 3.4,0 5,-1.3 6.8,-2.8 1.9,-1.5 4.1,-3.3 8.4,-3.3 4.2,0 6.4,1.7 8.4,3.3 1.9,1.5 3.5,2.8 6.8,2.8 3.4,0 5,-1.3 6.8,-2.8 1.9,-1.5 4.1,-3.3 8.4,-3.3 4.2,0 6.4,1.7 8.4,3.3 1.9,1.5 3.5,2.8 6.8,2.8 3.4,0 5,-1.3 6.8,-2.8 1.9,-1.5 4.1,-3.3 8.4,-3.3 4.2,0 6.4,1.7 8.4,3.3 0.7,0.6 1.4,1.1 2.2,1.6 1.6,-3.5 2.8,-7.2 3.6,-11.1 -3.5,-0.3 -5.4,-1.8 -7.2,-3.2 -1.8,-1.4 -3.6,-2.8 -7,-2.8 z"
   id="path398" />
		<path
   class="st0"
   d="m 187.7,115.9 c -1.8,1.4 -3.4,2.7 -6.7,2.7 -3.3,0 -4.9,-1.2 -6.7,-2.7 -2,-1.6 -4.2,-3.4 -8.6,-3.4 -4.3,0 -6.6,1.8 -8.6,3.4 -1.8,1.4 -3.4,2.7 -6.7,2.7 -3.3,0 -4.9,-1.2 -6.7,-2.7 -2,-1.6 -4.2,-3.4 -8.6,-3.4 -4.3,0 -6.6,1.8 -8.6,3.4 -1.6,1.3 -3,2.4 -5.6,2.6 0.9,0.9 1.8,1.7 2.7,2.5 2.1,-0.6 3.5,-1.8 4.8,-2.8 1.8,-1.4 3.4,-2.7 6.7,-2.7 3.3,0 4.9,1.2 6.7,2.7 2,1.6 4.2,3.4 8.6,3.4 4.3,0 6.6,-1.8 8.6,-3.4 1.8,-1.4 3.4,-2.7 6.7,-2.7 3.3,0 4.9,1.2 6.7,2.7 2,1.6 4.2,3.4 8.6,3.4 4.3,0 6.6,-1.8 8.6,-3.4 1.8,-1.4 3.4,-2.7 6.7,-2.7 0.9,0 1.7,0.1 2.4,0.3 0.7,-0.8 1.4,-1.7 2,-2.5 -1.2,-0.5 -2.7,-0.8 -4.5,-0.8 -4.3,0 -6.5,1.8 -8.5,3.4 z"
   id="path400" />
		<path
   class="st0"
   d="m 196.3,98.4 c -4.2,0 -6.4,1.7 -8.4,3.3 -1.9,1.5 -3.5,2.8 -6.8,2.8 -3.4,0 -5,-1.3 -6.8,-2.8 -1.9,-1.5 -4.1,-3.3 -8.4,-3.3 -4.2,0 -6.4,1.7 -8.4,3.3 -1.9,1.5 -3.5,2.8 -6.8,2.8 -3.4,0 -5,-1.3 -6.8,-2.8 -1.9,-1.5 -4.1,-3.3 -8.4,-3.3 -4.2,0 -6.4,1.7 -8.4,3.3 -1.9,1.5 -3.5,2.8 -6.8,2.8 -3.4,0 -5,-1.3 -6.8,-2.8 -1.2,-1 -2.5,-2 -4.4,-2.7 0.4,1.2 0.9,2.3 1.4,3.5 0.5,0.3 1,0.7 1.5,1.1 1.9,1.5 4.1,3.3 8.4,3.3 4.2,0 6.4,-1.7 8.4,-3.3 1.9,-1.5 3.5,-2.8 6.8,-2.8 3.4,0 5,1.3 6.8,2.8 1.9,1.5 4.1,3.3 8.4,3.3 4.2,0 6.4,-1.7 8.4,-3.3 1.9,-1.5 3.5,-2.8 6.8,-2.8 3.4,0 5,1.3 6.8,2.8 1.9,1.5 4.1,3.3 8.4,3.3 4.2,0 6.4,-1.7 8.4,-3.3 1.9,-1.5 3.5,-2.8 6.8,-2.8 3.4,0 5,1.3 6.8,2.8 0.8,0.6 1.6,1.3 2.6,1.8 0.4,-0.7 0.7,-1.5 1.1,-2.2 -0.8,-0.4 -1.4,-1 -2.2,-1.6 -2,-1.5 -4.2,-3.2 -8.4,-3.2 z"
   id="path402" />
		<path
   class="st0"
   d="m 196.3,84.2 c -4.1,0 -6.3,1.7 -8.2,3.2 -1.8,1.4 -3.5,2.8 -7,2.8 -3.5,0 -5.2,-1.4 -7,-2.8 -1.9,-1.5 -4.1,-3.2 -8.2,-3.2 -4.1,0 -6.3,1.7 -8.2,3.2 -1.8,1.4 -3.5,2.8 -7,2.8 -3.5,0 -5.2,-1.4 -7,-2.8 -1.9,-1.5 -4.1,-3.2 -8.2,-3.2 -4.1,0 -6.3,1.7 -8.2,3.2 -1.8,1.4 -3.5,2.8 -7,2.8 -3.5,0 -5.2,-1.4 -7,-2.8 -1.7,-1.4 -3.7,-2.9 -7.2,-3.2 0,0.6 0.1,1.3 0.1,1.9 2.7,0.3 4.2,1.5 5.8,2.8 1.9,1.5 4.1,3.2 8.2,3.2 4.1,0 6.3,-1.7 8.2,-3.2 1.8,-1.4 3.5,-2.8 7,-2.8 3.5,0 5.2,1.4 7,2.8 1.9,1.5 4.1,3.2 8.2,3.2 4.1,0 6.3,-1.7 8.2,-3.2 1.8,-1.4 3.5,-2.8 7,-2.8 3.5,0 5.2,1.4 7,2.8 1.9,1.5 4.1,3.2 8.2,3.2 4.1,0 6.3,-1.7 8.2,-3.2 1.8,-1.4 3.5,-2.8 7,-2.8 3.5,0 5.2,1.4 7,2.8 1.7,1.4 3.7,2.9 7.2,3.2 0.1,-0.6 0.2,-1.3 0.3,-1.9 -3,-0.2 -4.6,-1.4 -6.3,-2.8 -1.8,-1.5 -4,-3.2 -8.1,-3.2 z"
   id="path404" />
		<path
   class="st0"
   d="m 120.1,77.5 c 4,0 6.1,-1.6 8,-3.2 1.9,-1.5 3.6,-2.9 7.2,-2.9 3.6,0 5.3,1.4 7.2,2.9 2,1.6 4,3.2 8,3.2 4,0 6.1,-1.6 8,-3.2 1.9,-1.5 3.6,-2.9 7.2,-2.9 3.6,0 5.3,1.4 7.2,2.9 2,1.6 4,3.2 8,3.2 4,0 6.1,-1.6 8,-3.2 1.9,-1.5 3.6,-2.9 7.2,-2.9 3.6,0 5.3,1.4 7.2,2.9 1.9,1.5 4,3.1 8,3.2 v -0.1 c 0,-0.4 -0.1,-0.8 -0.1,-1.3 -3.4,-0.1 -5.2,-1.4 -7,-2.9 -2,-1.6 -4,-3.2 -8,-3.2 -4,0 -6.1,1.6 -8,3.2 -1.9,1.5 -3.6,2.9 -7.2,2.9 -3.6,0 -5.3,-1.4 -7.2,-2.9 -2,-1.6 -4,-3.2 -8,-3.2 -4,0 -6.1,1.6 -8,3.2 -1.9,1.5 -3.6,2.9 -7.2,2.9 -3.6,0 -5.3,-1.4 -7.2,-2.9 -2,-1.6 -4,-3.2 -8,-3.2 -4,0 -6.1,1.6 -8,3.2 -1.9,1.5 -3.6,2.9 -7.2,2.9 -3.6,0 -5.3,-1.4 -7.2,-2.9 -1.6,-1.3 -3.2,-2.5 -5.9,-3 -0.1,0.4 -0.2,0.9 -0.3,1.3 2.4,0.4 3.8,1.5 5.3,2.7 1.9,1.7 3.9,3.3 8,3.3 z"
   id="path406" />
		<path
   class="st0"
   d="m 120.1,62.8 c 4,0 5.9,-1.6 7.9,-3.1 1.9,-1.5 3.7,-2.9 7.4,-2.9 3.7,0 5.5,1.4 7.4,2.9 1.9,1.5 3.9,3.1 7.9,3.1 4,0 5.9,-1.6 7.9,-3.1 1.9,-1.5 3.7,-2.9 7.4,-2.9 3.7,0 5.5,1.4 7.4,2.9 1.9,1.5 3.9,3.1 7.9,3.1 4,0 5.9,-1.6 7.9,-3.1 1.9,-1.5 3.7,-2.9 7.4,-2.9 3.7,0 5.5,1.4 7.4,2.9 1.3,1 2.5,2 4.4,2.6 -0.1,-0.3 -0.3,-0.7 -0.4,-1 -1.3,-0.6 -2.4,-1.4 -3.4,-2.2 -1.9,-1.5 -3.9,-3.1 -7.9,-3.1 -4,0 -5.9,1.6 -7.9,3.1 -1.9,1.5 -3.7,2.9 -7.4,2.9 -3.7,0 -5.5,-1.4 -7.4,-2.9 -1.9,-1.5 -3.9,-3.1 -7.9,-3.1 -4,0 -5.9,1.6 -7.9,3.1 -1.9,1.5 -3.7,2.9 -7.4,2.9 -3.7,0 -5.5,-1.4 -7.4,-2.9 -1.9,-1.5 -3.9,-3.1 -7.9,-3.1 -4,0 -5.9,1.6 -7.9,3.1 -1.9,1.5 -3.7,2.9 -7.4,2.9 -3.7,0 -5.5,-1.4 -7.4,-2.9 -0.5,-0.4 -0.9,-0.7 -1.4,-1.1 -0.1,0.2 -0.3,0.5 -0.4,0.8 0.4,0.3 0.9,0.6 1.3,1 1.8,1.4 3.8,3 7.8,3 z"
   id="path408" />
	</g>
</g><g
         id="g428">
	<g
   id="g426">
		<path
   class="st3"
   d="M 81.7,161.9 63.5,203.1 H 58.4 L 40.2,161.9 h 5.1 L 61,197.4 76.6,161.9 Z"
   id="path414" />
		<path
   class="st3"
   d="m 91.7,166.3 v 13.6 h 22.4 v 4.4 H 91.7 v 14.3 h 24.8 V 203 H 87 v -41.2 h 29.6 v 4.4 H 91.7 Z"
   id="path416" />
		<path
   class="st3"
   d="m 150.9,198.7 v 4.4 h -27.2 v -41.2 h 4.7 v 36.8 z"
   id="path418" />
		<path
   class="st3"
   d="m 160.9,166.3 v 13.6 h 22.4 v 4.4 h -22.4 v 14.3 h 24.8 v 4.4 h -29.6 v -41.2 h 29.6 v 4.4 h -24.8 z"
   id="path420" />
		<path
   class="st3"
   d="m 223.1,181.3 c -1.1,1.9 -2.6,3.4 -4.6,4.6 -2,1.2 -4.2,1.9 -6.6,2.2 l 10.5,14.9 h -5.3 l -10.4,-14.8 h -9.1 V 203 h -4.7 v -41.2 h 16.7 c 2.8,0 5.4,0.6 7.7,1.7 2.3,1.1 4.1,2.7 5.5,4.7 1.3,2 2,4.3 2,6.8 0,2.4 -0.6,4.5 -1.7,6.3 z m -25.6,2.6 h 11.2 c 3.4,0 6.1,-0.8 8.2,-2.3 2.1,-1.6 3.1,-3.7 3.1,-6.4 0,-2.7 -1,-4.9 -3.1,-6.4 -2.1,-1.6 -4.8,-2.3 -8.2,-2.3 h -11.2 z"
   id="path422" />
		<path
   class="st3"
   d="m 239.6,200.9 c -3.3,-1.9 -5.8,-4.5 -7.8,-7.8 -1.9,-3.3 -2.9,-6.8 -2.9,-10.6 0,-3.8 1,-7.3 2.9,-10.6 1.9,-3.3 4.5,-5.9 7.8,-7.8 3.3,-1.9 6.8,-2.9 10.5,-2.9 3.8,0 7.2,1 10.5,2.9 3.2,1.9 5.8,4.5 7.7,7.8 1.9,3.3 2.9,6.8 2.9,10.6 0,3.8 -1,7.3 -2.9,10.6 -1.9,3.3 -4.5,5.9 -7.7,7.8 -3.2,1.9 -6.7,2.9 -10.5,2.9 -3.8,0 -7.3,-0.9 -10.5,-2.9 z m 18.6,-3.7 c 2.5,-1.6 4.5,-3.6 6,-6.2 1.5,-2.6 2.2,-5.4 2.2,-8.5 0,-3 -0.7,-5.8 -2.2,-8.4 -1.5,-2.6 -3.5,-4.7 -6,-6.2 -2.5,-1.5 -5.2,-2.3 -8.1,-2.3 -2.9,0 -5.6,0.8 -8.1,2.3 -2.5,1.5 -4.5,3.6 -6,6.2 -1.5,2.6 -2.2,5.4 -2.2,8.4 0,3 0.8,5.9 2.2,8.5 1.5,2.6 3.5,4.7 6,6.2 2.5,1.5 5.2,2.3 8.1,2.3 2.9,0 5.6,-0.8 8.1,-2.3 z"
   id="path424" />
	</g>
</g></g></g><style
     type="text/css"
     id="style308">
	.st0{fill:#FFFFFF;}
	.st1{fill:none;}
	.st2{fill:#009BDB;}
	.st3{fill:#717074;}
</style><style
     type="text/css"
     id="style384">
	.st0{fill:#FFFFFF;}
	.st1{fill:none;}
	.st2{fill:#009BDB;}
	.st3{fill:#717074;}
</style></svg>
